{"title":"Seru","uid":10989128,"size":728673799,"categoryP":"video","categoryS":"movies","magnet":"?xt=urn:btih:9df9050a1e612650e6de8e0dd2fbb0944e4ac643&amp;dn=Seru&amp;tr=udp%3A%2F%2Ftracker.openbittorrent.com%3A80&amp;tr=udp%3A%2F%2Fopen.demonii.com%3A1337&amp;tr=udp%3A%2F%2Ftracker.coppersurfer.tk%3A6969&amp;tr=udp%3A%2F%2Fexodus.desync.com%3A6969","seeders":1,"leechers":0,"uploader":null,"files":-1,"time":1409966646,"description":"Members of a movie a production team are threatened by a vengeful entity.\n\nThis is the .avi file from the .rar file Seru.rar at &quot;Seru (Malay movie) PPVRIP&quot; http://thepiratebay.se/torrent/6421554/Seru_(Malay_movie)_PPVRIP \n\nIt looks like a television broadcast on Malaysian or Indonesian TV of the horror movie, with subtitles in Indonesian.\n\nThe quality is not great, the plot is not complex. \n\nGeneral\nUnique ID                        : 236594415913397096887732449474735880994 (0xB1FE6D51B90D9BFC939B1602F209BB22)\nComplete name                    : Seru.avi\nFormat                           : Matroska\nFile size                        : 695 MiB\nDuration                         : 1h 22mn\nOverall bit rate                 : 1 178 Kbps\nEncoded date                     : UTC 2011-05-23 12:43:18\nWriting application              : mkvmerge v2.2.0 ('Turn It On Again') built on Mar  4 2008 12:58:26\nWriting library                  : libebml v0.7.7 + libmatroska v0.8.1\n\nVideo\nID                               : 1\nFormat                           : MPEG-4 Visual\nFormat profile                   : Advanced Simple@L5\nFormat settings, BVOP            : Yes\nFormat settings, QPel            : No\nFormat settings, GMC             : No warppoints\nFormat settings, Matrix          : Custom\nCodec ID                         : XVID\nCodec ID/Hint                    : XviD\nDuration                         : 1h 22mn\nBit rate                         : 1 039 Kbps\nWidth                            : 720 pixels\nHeight                           : 400 pixels\nDisplay aspect ratio             : 16:9\nFrame rate                       : 25.000 fps\nColor space                      : YUV\nChroma subsampling               : 4:2:0\nBit depth                        : 8 bits\nScan type                        : Progressive\nCompression mode                 : Lossy\nBits/(Pixel*Frame)               : 0.144\nStream size                      : 613 MiB (88%)\nWriting library                  : XviD 63\n\nAudio\nID                               : 2\nFormat                           : MPEG Audio\nFormat version                   : Version 1\nFormat profile                   : Layer 3\nMode                             : Joint stereo\nCodec ID                         : A_MPEG/L3\nCodec ID/Hint                    : MP3\nDuration                         : 1h 22mn\nBit rate mode                    : Variable\nBit rate                         : 116 Kbps\nNominal bit rate                 : 128 Kbps\nChannel(s)                       : 2 channels\nSampling rate                    : 48.0 KHz\nCompression mode                 : Lossy\nStream size                      : 68.3 MiB (10%)\nWriting library                  : LAME3.98r\nEncoding settings                : -m j -V 4 -q 2 -lowpass 17 --abr 128\n\nText\nID                               : 3\nFormat                           : UTF-8\nCodec ID                         : S_TEXT/UTF8\nCodec ID/Info                    : UTF-8 Plain Text\n\n\n\n\n\n","torrent":{"xt":"urn:btih:9df9050a1e612650e6de8e0dd2fbb0944e4ac643","amp;dn":"Seru","amp;tr":["udp%3A%2F%2Ftracker.openbittorrent.com%3A80","udp%3A%2F%2Fopen.demonii.com%3A1337","udp%3A%2F%2Ftracker.coppersurfer.tk%3A6969","udp%3A%2F%2Fexodus.desync.com%3A6969"],"infoHash":"9df9050a1e612650e6de8e0dd2fbb0944e4ac643","infoHashBuffer":{"type":"Buffer","data":[157,249,5,10,30,97,38,80,230,222,142,13,210,251,176,148,78,74,198,67]},"announce":[],"urlList":[]}}